<?xml version="1.0" encoding="utf-8"?>
<!-- Generator: Adobe Illustrator 25.2.0, SVG Export Plug-In . SVG Version: 6.00 Build 0)  -->
<svg version="1.1" id="Camada_1" xmlns="http://www.w3.org/2000/svg" xmlns:xlink="http://www.w3.org/1999/xlink" x="0px" y="0px"
	 viewBox="0 0 283.6 381.31" style="enable-background:new 0 0 283.6 381.31;" xml:space="preserve">
<style type="text/css">
	.st0{fill:#FFFFFF;}
	.st1{fill:#E3EAF5;}
	.st2{fill:#EA526B;}
	.st3{fill:none;stroke:#6B277B;stroke-width:7;stroke-miterlimit:10;}
	.st4{fill:none;stroke:#6B277B;stroke-width:7;stroke-linecap:round;stroke-linejoin:round;stroke-miterlimit:10;}
	.st5{fill:#EA516B;stroke:#6B277B;stroke-width:7;stroke-linecap:round;stroke-linejoin:round;stroke-miterlimit:10;}
	.st6{fill:#6B277B;}
</style>
<g>
	<path class="st0" d="M205.84,90.35c-16.47-11.95-53.61-24.39-86.45,1.57c-37.74,29.83-72.03,95.01-76.11,136.9
		s35.25,63.85,35.25,63.85s47,27.58,82.75-7.66s69.46-96.68,73.03-130.4C237.89,120.9,220.86,101.25,205.84,90.35z"/>
	<path class="st1" d="M202.45,91.97c0,0,6.43,65.17-13.58,97.83s-48.86,87.35-106.65,100.94c0,0,35.64,27.41,68.46,2.8
		s88.21-118.98,84.11-149.37C230.69,113.77,202.45,91.97,202.45,91.97z"/>
	<path class="st2" d="M54.64,185.77c1.07,1.07,68.93,117.17,68.93,117.17l42.56-22.89L82.22,133.67L54.64,185.77z"/>
	<path class="st2" d="M111.9,98.35c1.07,1.07,84.4,143.21,84.4,143.21l23.67-46.63L150.68,76.64L111.9,98.35z"/>
	<path class="st3" d="M205.84,90.35c-16.47-11.95-53.61-24.39-86.45,1.57c-37.74,29.83-72.03,95.01-76.11,136.9
		s35.25,63.85,35.25,63.85s47,27.58,82.75-7.66s69.46-96.68,73.03-130.4C237.89,120.9,220.86,101.25,205.84,90.35z"/>
	<line class="st4" x1="151.99" y1="78.94" x2="220.35" y2="198.62"/>
	<line class="st4" x1="58.06" y1="182.39" x2="125.64" y2="300.71"/>
	<line class="st4" x1="82.22" y1="133.67" x2="133.37" y2="223.22"/>
	<line class="st4" x1="148.45" y1="249.29" x2="164.87" y2="278.04"/>
	<line class="st4" x1="194.74" y1="238.38" x2="142.51" y2="149.46"/>
	<line class="st4" x1="127.11" y1="123.58" x2="113.23" y2="99.95"/>
	<path class="st5" d="M185.52,78.39V4.83c0,0,4.56,17.76,19.54,22.21s22.55-4.44,29.73-1.39c7.19,3.05,7.74,24.43,18.01,29.42
		c10.27,5,25.81,5.55,25.81,5.55l-62.73,37.75C215.89,98.37,201.5,81.16,185.52,78.39z"/>
	<line class="st4" x1="201.77" y1="85.67" x2="212.83" y2="67.29"/>
	<path class="st5" d="M97.39,303.4l2.83,73.5c0,0-5.24-17.58-20.38-21.44s-22.36,5.31-29.66,2.53c-7.3-2.77-8.68-24.11-19.13-28.71
		c-10.46-4.6-26.01-4.55-26.01-4.55l61.23-40.14C66.27,284.6,81.31,301.25,97.39,303.4z"/>
	<line class="st4" x1="80.86" y1="296.76" x2="70.52" y2="315.55"/>
	<line class="st4" x1="58.06" y1="47.66" x2="82.22" y2="72.48"/>
	<line class="st4" x1="58.11" y1="72.15" x2="82.93" y2="47.99"/>
	<line class="st4" x1="241.52" y1="284.35" x2="265.68" y2="309.17"/>
	<line class="st4" x1="241.58" y1="308.84" x2="266.39" y2="284.68"/>
	<circle class="st6" cx="30.83" cy="116.79" r="7.67"/>
	<circle class="st6" cx="253.6" cy="236.15" r="7.67"/>
</g>
</svg>
